# xmcd CD database file
#
# Track frame offsets:
#	150
#	27863
#	61313
#	98163
#	128902
#	155935
#
# Disc length: 2409 seconds
#
# Revision: 0
# Processed by: cddbd v1.5.1PL2 Copyright (c) Steve Scherf et al.
# Submitted via: CDex 1.51
#
DISCID=4c096706
DTITLE=Various Artist - Rolf Benz präsentiert JAZZnights 2000/2001
DYEAR=2001
DGENRE=Jazz
TTITLE0=You go to my head - Roy Hargrove
TTITLE1=Chichon - John Scofield
TTITLE2=Come on home - Benny Green Trio
TTITLE3=St. Thomas - Sonny Rollins
TTITLE4=Convalescent - Brad Mehldau
TTITLE5=Gone, just like a train - Bill Frisell
EXTD=YEAR: 2001
EXTT0=
EXTT1=
EXTT2=
EXTT3=
EXTT4=
EXTT5=
PLAYORDER=
